<svg xmlns="http://www.w3.org/2000/svg" xmlns:xlink="http://www.w3.org/1999/xlink" width="500" zoomAndPan="magnify" viewBox="0 0 375 149.999998" height="200" preserveAspectRatio="xMidYMid meet" version="1.0"><defs><g/></defs><g fill="#3285d5" fill-opacity="1"><g transform="translate(3.773353, 91.821305)"><g><path d="M 41.75 4.164062 C 34.832031 -0.0585938 28.910156 -9.910156 25.917969 -20.464844 C 25.800781 -20.757812 25.625 -20.933594 25.332031 -20.875 C 24.394531 -20.757812 23.398438 -20.640625 22.402344 -20.640625 C 30.140625 -21.695312 34.65625 -25.859375 34.65625 -31.253906 C 34.65625 -38.058594 29.847656 -41.28125 18.824219 -41.28125 C 14.894531 -41.28125 10.90625 -41.105469 5.570312 -41.046875 C 4.75 -41.046875 3.109375 -41.164062 2.34375 -41.164062 C 1.933594 -41.164062 1.875 -40.8125 2.34375 -40.753906 C 4.984375 -40.695312 6.625 -39.582031 6.625 -35.535156 L 6.625 -5.511719 C 6.625 -1.464844 4.984375 -0.351562 2.402344 -0.234375 C 1.875 -0.234375 1.992188 0.175781 2.402344 0.175781 C 3.109375 0.117188 4.75 0 5.570312 0 L 13.3125 0 C 14.132812 0 15.773438 0.117188 16.476562 0.175781 C 16.886719 0.175781 16.945312 -0.234375 16.476562 -0.234375 C 13.898438 -0.351562 12.253906 -1.464844 12.253906 -5.511719 L 12.253906 -38.703125 C 12.253906 -40.285156 12.84375 -40.871094 14.25 -40.8125 L 17.476562 -40.695312 C 24.980469 -40.460938 28.324219 -37.941406 28.324219 -31.546875 C 28.324219 -25.683594 25.097656 -21.285156 17.828125 -20.816406 L 15.246094 -20.757812 C 14.835938 -20.699219 14.835938 -20.40625 15.246094 -20.40625 L 19.410156 -20.347656 C 24.863281 -7.210938 31.839844 0.46875 41.515625 4.515625 C 41.925781 4.691406 42.160156 4.398438 41.75 4.164062 Z M 41.75 4.164062 "/></g></g></g><g fill="#3285d5" fill-opacity="1"><g transform="translate(43.119768, 91.821305)"><g><path d="M 22.871094 0 C 30.199219 0 31.898438 0.703125 33.074219 0.644531 C 33.660156 0.644531 34.070312 0.410156 34.128906 -0.644531 C 34.1875 -4.574219 34.65625 -9.910156 35.417969 -14.777344 C 35.535156 -15.246094 35.183594 -15.480469 35.066406 -14.835938 C 33.835938 -8.210938 32.664062 -5.160156 30.726562 -3.34375 C 28.5 -1.230469 23.574219 -0.410156 14.074219 -0.410156 C 13.136719 -0.410156 12.253906 -0.9375 12.253906 -3.167969 L 12.253906 -19.996094 C 12.253906 -20.640625 12.492188 -21.578125 13.429688 -21.578125 C 14.425781 -21.578125 17.945312 -21.519531 19.175781 -21.402344 C 21.109375 -21.167969 22.34375 -19.585938 23.867188 -14.542969 C 23.984375 -14.074219 24.277344 -14.191406 24.21875 -14.542969 C 23.515625 -18.414062 23.164062 -24.160156 23.925781 -28.265625 C 23.984375 -28.675781 23.691406 -28.792969 23.574219 -28.265625 C 22.105469 -23.28125 21.109375 -22.402344 19.175781 -22.164062 C 17.945312 -21.988281 14.425781 -21.988281 13.429688 -21.988281 C 12.492188 -21.988281 12.253906 -22.8125 12.253906 -23.457031 L 12.253906 -38.703125 C 12.253906 -39.992188 12.785156 -40.636719 13.664062 -40.636719 C 22.222656 -40.636719 26.679688 -40.285156 28.851562 -37.882812 C 30.375 -36.238281 31.253906 -34.421875 33.25 -26.09375 C 33.308594 -25.742188 33.601562 -25.800781 33.542969 -26.152344 C 32.898438 -31.136719 32.3125 -36.296875 32.191406 -40.402344 C 32.132812 -41.457031 31.722656 -41.691406 31.136719 -41.691406 C 29.964844 -41.691406 27.445312 -41.046875 21.988281 -41.046875 L 5.570312 -41.046875 C 4.75 -41.046875 3.109375 -41.164062 2.402344 -41.222656 C 1.992188 -41.222656 1.875 -40.8125 2.402344 -40.8125 C 4.984375 -40.695312 6.625 -39.582031 6.625 -35.535156 L 6.625 -5.511719 C 6.625 -1.464844 4.984375 -0.351562 2.402344 -0.234375 C 1.875 -0.234375 1.992188 0.175781 2.402344 0.175781 C 3.109375 0.117188 4.75 0 5.570312 0 Z M 22.871094 0 "/></g></g></g><g fill="#3285d5" fill-opacity="1"><g transform="translate(80.47247, 91.821305)"><g><path d="M 17.652344 0.292969 C 32.722656 0.292969 40.402344 -8.855469 40.402344 -20.699219 C 40.402344 -32.722656 33.25 -41.28125 15.421875 -41.28125 C 13.488281 -41.28125 9.148438 -41.105469 5.570312 -41.046875 C 4.75 -41.046875 3.109375 -41.105469 2.34375 -41.164062 C 1.933594 -41.164062 1.875 -40.8125 2.34375 -40.753906 C 4.984375 -40.636719 6.625 -39.582031 6.625 -35.535156 L 6.625 -5.511719 C 6.625 -1.40625 4.984375 -0.292969 2.34375 -0.234375 C 1.875 -0.234375 1.933594 0.175781 2.34375 0.175781 C 3.109375 0.117188 4.75 0.0585938 5.570312 0.0585938 C 10.378906 0.0585938 14.015625 0.292969 17.652344 0.292969 Z M 16.242188 -0.175781 C 12.902344 -0.175781 12.253906 -0.761719 12.253906 -2.757812 L 12.253906 -38.46875 C 12.253906 -39.992188 12.609375 -40.8125 14.132812 -40.8125 C 28.5 -40.8125 34.480469 -31.136719 34.480469 -19.820312 C 34.421875 -8.738281 29.378906 -0.175781 16.242188 -0.175781 Z M 16.242188 -0.175781 "/></g></g></g><g fill="#3285d5" fill-opacity="1"><g transform="translate(123.864934, 91.821305)"><g><path d="M 41.574219 -0.234375 C 39.582031 -0.351562 38.703125 -1.523438 37.175781 -5.277344 L 22.402344 -40.460938 C 22.222656 -40.929688 21.988281 -41.046875 21.519531 -41.046875 L 16.066406 -41.046875 C 15.714844 -41.046875 15.597656 -40.871094 15.773438 -40.8125 C 16.125 -40.695312 16.417969 -40.402344 16.535156 -40.050781 L 17.417969 -37.941406 C 17.652344 -37.414062 17.945312 -36.355469 17.476562 -35.242188 L 4.984375 -5.277344 C 3.402344 -1.523438 2.523438 -0.351562 0.527344 -0.234375 C 0.175781 -0.234375 0.234375 0.175781 0.527344 0.175781 C 1.113281 0.117188 2.34375 0 2.992188 0 L 5.511719 0 C 6.566406 0 8.679688 0.117188 9.558594 0.175781 C 10.085938 0.175781 10.203125 -0.234375 9.617188 -0.234375 C 6.273438 -0.351562 3.8125 -1.523438 5.394531 -5.277344 L 6.742188 -8.503906 L 6.742188 -8.445312 C 6.976562 -9.148438 7.800781 -9.617188 8.621094 -9.617188 C 14.71875 -9.910156 20.816406 -11.433594 26.035156 -13.898438 C 26.738281 -14.25 27.207031 -14.132812 27.679688 -13.605469 L 31.195312 -5.277344 C 32.722656 -1.523438 30.375 -0.351562 27.148438 -0.234375 C 26.5625 -0.234375 26.621094 0.175781 27.148438 0.175781 C 28.03125 0.117188 30.082031 0 31.078125 0 L 39.113281 0 C 39.757812 0 40.988281 0.117188 41.574219 0.175781 C 41.867188 0.175781 41.925781 -0.234375 41.574219 -0.234375 Z M 25.800781 -14.308594 C 20.875 -11.785156 14.601562 -10.378906 8.679688 -10.027344 C 7.976562 -10.027344 7.742188 -10.613281 7.859375 -11.082031 L 18.238281 -36.003906 L 26.679688 -15.949219 L 26.621094 -15.949219 C 26.855469 -15.480469 26.5625 -14.660156 25.800781 -14.308594 Z M 25.800781 -14.308594 "/></g></g></g><g fill="#3285d5" fill-opacity="1"><g transform="translate(166.495097, 91.821305)"><g><path d="M 38.410156 -33.484375 C 39.347656 -37.175781 32.957031 -41.867188 24.511719 -41.867188 C 12.550781 -41.867188 2.402344 -32.605469 2.402344 -19.820312 C 2.402344 -7.269531 11.433594 0.878906 21.988281 0.878906 C 29.261719 0.878906 34.65625 -1.875 39.40625 -7.683594 C 39.816406 -8.152344 39.523438 -8.328125 39.113281 -7.917969 C 35.066406 -3.402344 29.085938 -2.640625 26.09375 -2.640625 C 17.535156 -2.640625 7.625 -11.433594 7.625 -25.917969 C 7.625 -36.414062 13.664062 -40.285156 22.28125 -40.285156 C 26.738281 -40.285156 30.726562 -38 32.722656 -33.660156 C 34.480469 -30.257812 35.125 -25.625 33.601562 -20.699219 C 33.484375 -20.347656 33.953125 -20.230469 34.011719 -20.582031 Z M 38.410156 -33.484375 "/></g></g></g><g fill="#3285d5" fill-opacity="1"><g transform="translate(207.190191, 91.821305)"><g><path d="M 43.746094 -0.234375 C 41.105469 -0.351562 39.523438 -1.464844 39.523438 -5.511719 L 39.523438 -35.535156 C 39.523438 -39.582031 41.105469 -40.695312 43.746094 -40.8125 C 44.214844 -40.8125 44.15625 -41.222656 43.746094 -41.222656 C 43.042969 -41.164062 41.339844 -41.046875 40.519531 -41.046875 L 32.839844 -41.046875 C 32.015625 -41.046875 30.375 -41.164062 29.613281 -41.222656 C 29.203125 -41.222656 29.144531 -40.8125 29.613281 -40.8125 C 32.25 -40.695312 33.835938 -39.582031 33.835938 -35.535156 L 33.835938 -24.804688 C 33.835938 -24.042969 33.660156 -23.632812 32.78125 -23.222656 C 26.445312 -20.523438 19.46875 -18.882812 13.195312 -18.589844 C 12.609375 -18.53125 12.371094 -18.824219 12.253906 -19.292969 L 12.253906 -35.535156 C 12.253906 -39.582031 13.898438 -40.695312 16.476562 -40.8125 C 16.945312 -40.8125 16.886719 -41.222656 16.476562 -41.222656 C 15.773438 -41.164062 14.132812 -41.046875 13.3125 -41.046875 L 5.570312 -41.046875 C 4.75 -41.046875 3.109375 -41.164062 2.402344 -41.222656 C 1.992188 -41.222656 1.875 -40.8125 2.402344 -40.8125 C 4.984375 -40.695312 6.625 -39.582031 6.625 -35.535156 L 6.625 -5.511719 C 6.625 -1.464844 4.984375 -0.351562 2.402344 -0.234375 C 1.875 -0.234375 1.992188 0.175781 2.402344 0.175781 C 3.109375 0.117188 4.75 0 5.570312 0 L 13.3125 0 C 14.132812 0 15.773438 0.117188 16.476562 0.175781 C 16.886719 0.175781 16.945312 -0.234375 16.476562 -0.234375 C 13.898438 -0.351562 12.253906 -1.464844 12.253906 -5.511719 L 12.253906 -16.710938 C 12.253906 -17.417969 12.371094 -18.121094 13.253906 -18.179688 C 19.527344 -18.472656 26.386719 -20.054688 32.839844 -22.8125 C 33.660156 -23.164062 33.835938 -22.695312 33.835938 -21.988281 L 33.835938 -5.511719 C 33.835938 -1.464844 32.25 -0.351562 29.613281 -0.234375 C 29.144531 -0.234375 29.203125 0.175781 29.613281 0.175781 C 30.375 0.117188 32.015625 0 32.839844 0 L 40.519531 0 C 41.339844 0 43.042969 0.117188 43.746094 0.175781 C 44.15625 0.175781 44.214844 -0.234375 43.746094 -0.234375 Z M 43.746094 -0.234375 "/></g></g></g><g fill="#3285d5" fill-opacity="1"><g transform="translate(253.866412, 91.821305)"><g><path d="M 22.871094 0 C 30.199219 0 31.898438 0.703125 33.074219 0.644531 C 33.660156 0.644531 34.070312 0.410156 34.128906 -0.644531 C 34.1875 -4.574219 34.65625 -9.910156 35.417969 -14.777344 C 35.535156 -15.246094 35.183594 -15.480469 35.066406 -14.835938 C 33.835938 -8.210938 32.664062 -5.160156 30.726562 -3.34375 C 28.5 -1.230469 23.574219 -0.410156 14.074219 -0.410156 C 13.136719 -0.410156 12.253906 -0.9375 12.253906 -3.167969 L 12.253906 -19.996094 C 12.253906 -20.640625 12.492188 -21.578125 13.429688 -21.578125 C 14.425781 -21.578125 17.945312 -21.519531 19.175781 -21.402344 C 21.109375 -21.167969 22.34375 -19.585938 23.867188 -14.542969 C 23.984375 -14.074219 24.277344 -14.191406 24.21875 -14.542969 C 23.515625 -18.414062 23.164062 -24.160156 23.925781 -28.265625 C 23.984375 -28.675781 23.691406 -28.792969 23.574219 -28.265625 C 22.105469 -23.28125 21.109375 -22.402344 19.175781 -22.164062 C 17.945312 -21.988281 14.425781 -21.988281 13.429688 -21.988281 C 12.492188 -21.988281 12.253906 -22.8125 12.253906 -23.457031 L 12.253906 -38.703125 C 12.253906 -39.992188 12.785156 -40.636719 13.664062 -40.636719 C 22.222656 -40.636719 26.679688 -40.285156 28.851562 -37.882812 C 30.375 -36.238281 31.253906 -34.421875 33.25 -26.09375 C 33.308594 -25.742188 33.601562 -25.800781 33.542969 -26.152344 C 32.898438 -31.136719 32.3125 -36.296875 32.191406 -40.402344 C 32.132812 -41.457031 31.722656 -41.691406 31.136719 -41.691406 C 29.964844 -41.691406 27.445312 -41.046875 21.988281 -41.046875 L 5.570312 -41.046875 C 4.75 -41.046875 3.109375 -41.164062 2.402344 -41.222656 C 1.992188 -41.222656 1.875 -40.8125 2.402344 -40.8125 C 4.984375 -40.695312 6.625 -39.582031 6.625 -35.535156 L 6.625 -5.511719 C 6.625 -1.464844 4.984375 -0.351562 2.402344 -0.234375 C 1.875 -0.234375 1.992188 0.175781 2.402344 0.175781 C 3.109375 0.117188 4.75 0 5.570312 0 Z M 22.871094 0 "/></g></g></g><g fill="#3285d5" fill-opacity="1"><g transform="translate(291.21911, 91.821305)"><g><path d="M 38.410156 -33.484375 C 39.347656 -37.175781 32.957031 -41.867188 24.511719 -41.867188 C 12.550781 -41.867188 2.402344 -32.605469 2.402344 -19.820312 C 2.402344 -7.269531 11.433594 0.878906 21.988281 0.878906 C 29.261719 0.878906 34.65625 -1.875 39.40625 -7.683594 C 39.816406 -8.152344 39.523438 -8.328125 39.113281 -7.917969 C 35.066406 -3.402344 29.085938 -2.640625 26.09375 -2.640625 C 17.535156 -2.640625 7.625 -11.433594 7.625 -25.917969 C 7.625 -36.414062 13.664062 -40.285156 22.28125 -40.285156 C 26.738281 -40.285156 30.726562 -38 32.722656 -33.660156 C 34.480469 -30.257812 35.125 -25.625 33.601562 -20.699219 C 33.484375 -20.347656 33.953125 -20.230469 34.011719 -20.582031 Z M 38.410156 -33.484375 "/></g></g></g><g fill="#3285d5" fill-opacity="1"><g transform="translate(331.914204, 91.821305)"><g><path d="M 41.808594 4.105469 C 35.242188 0.292969 26.914062 -13.3125 23.867188 -24.453125 C 23.808594 -24.628906 23.574219 -24.746094 23.164062 -24.6875 C 21.695312 -24.160156 20.347656 -23.808594 19 -23.574219 L 29.964844 -36.296875 C 32.664062 -39.347656 34.128906 -40.695312 37.414062 -40.8125 C 38.058594 -40.8125 37.941406 -41.222656 37.414062 -41.222656 C 36.53125 -41.164062 34.421875 -41.046875 33.367188 -41.046875 L 30.257812 -41.046875 C 29.4375 -41.046875 27.796875 -41.164062 27.089844 -41.222656 C 26.679688 -41.222656 26.621094 -40.8125 27.089844 -40.8125 C 29.671875 -40.695312 31.898438 -39.347656 29.261719 -36.238281 L 18.355469 -23.457031 C 18.121094 -23.398438 17.886719 -23.398438 17.652344 -23.339844 L 17.828125 -22.871094 L 12.253906 -16.300781 L 12.253906 -35.535156 C 12.253906 -39.582031 13.898438 -40.695312 16.476562 -40.8125 C 16.945312 -40.8125 16.886719 -41.222656 16.476562 -41.222656 C 15.773438 -41.164062 14.132812 -41.046875 13.3125 -41.046875 L 5.570312 -41.046875 C 4.75 -41.046875 3.109375 -41.164062 2.402344 -41.222656 C 1.992188 -41.222656 1.875 -40.8125 2.402344 -40.8125 C 4.984375 -40.695312 6.625 -39.582031 6.625 -35.535156 L 6.625 -5.511719 C 6.625 -1.464844 4.984375 -0.351562 2.402344 -0.234375 C 1.875 -0.234375 1.992188 0.175781 2.402344 0.175781 C 3.109375 0.117188 4.75 0 5.570312 0 L 13.3125 0 C 14.132812 0 15.773438 0.117188 16.476562 0.175781 C 16.886719 0.175781 16.945312 -0.234375 16.476562 -0.234375 C 13.898438 -0.351562 12.253906 -1.464844 12.253906 -5.511719 L 12.253906 -15.714844 L 18.003906 -22.402344 C 22.988281 -10.613281 32.132812 0.585938 41.574219 4.457031 C 41.984375 4.632812 42.160156 4.28125 41.808594 4.105469 Z M 41.808594 4.105469 "/></g></g></g></svg>